<?xml version="1.0" encoding="us-ascii" standalone="no"?><svg xmlns="http://www.w3.org/2000/svg" xmlns:xlink="http://www.w3.org/1999/xlink" contentStyleType="text/css" height="323px" preserveAspectRatio="none" style="width:919px;height:323px;background:#DDDDDD;" version="1.1" viewBox="0 0 919 323" width="919px" zoomAndPan="magnify"><defs/><g><rect fill="#DDDDDD" height="323" style="stroke:none;stroke-width:1.0;" width="919" x="0" y="0"/><!--cluster sisdi--><g id="cluster_sisdi"><polygon fill="none" points="16,16,26,6,902,6,902,296,892,306,16,306,16,16" style="stroke:#454645;stroke-width:1.0;"/><line style="stroke:#454645;stroke-width:1.0;" x1="892" x2="902" y1="16" y2="6"/><line style="stroke:#454645;stroke-width:1.0;" x1="16" x2="892" y1="16" y2="16"/><line style="stroke:#454645;stroke-width:1.0;" x1="892" x2="892" y1="16" y2="306"/><text fill="#000000" font-family="sans-serif" font-size="14" font-weight="bold" lengthAdjust="spacing" textLength="135" x="387.5" y="34.1074">Personal Computer</text></g><!--cluster h2--><g id="cluster_h2"><rect fill="none" height="101" rx="3.5" ry="3.5" style="stroke:#454645;stroke-width:1.0;" width="664" x="130" y="181"/><text fill="#000000" font-family="sans-serif" font-size="14" font-weight="bold" lengthAdjust="spacing" textLength="18" x="453" y="198.1074">H2</text></g><!--entity p1--><g id="elem_p1"><rect fill="#F1F1F1" height="48.6211" rx="3.5" ry="3.5" style="stroke:#181818;stroke-width:0.5;" width="96" x="790" y="48"/><rect fill="#F1F1F1" height="10" style="stroke:#181818;stroke-width:0.5;" width="15" x="866" y="53"/><rect fill="#F1F1F1" height="2" style="stroke:#181818;stroke-width:0.5;" width="4" x="864" y="55"/><rect fill="#F1F1F1" height="2" style="stroke:#181818;stroke-width:0.5;" width="4" x="864" y="59"/><text fill="#000000" font-family="sans-serif" font-size="14" lengthAdjust="spacing" textLength="56" x="805" y="83.1074">Plans:P1</text></g><!--entity p2--><g id="elem_p2"><rect fill="#F1F1F1" height="48.6211" rx="3.5" ry="3.5" style="stroke:#181818;stroke-width:0.5;" width="96" x="659" y="48"/><rect fill="#F1F1F1" height="10" style="stroke:#181818;stroke-width:0.5;" width="15" x="735" y="53"/><rect fill="#F1F1F1" height="2" style="stroke:#181818;stroke-width:0.5;" width="4" x="733" y="55"/><rect fill="#F1F1F1" height="2" style="stroke:#181818;stroke-width:0.5;" width="4" x="733" y="59"/><text fill="#000000" font-family="sans-serif" font-size="14" lengthAdjust="spacing" textLength="56" x="674" y="83.1074">Plans:P2</text></g><!--entity s1--><g id="elem_s1"><rect fill="#F1F1F1" height="48.6211" rx="3.5" ry="3.5" style="stroke:#181818;stroke-width:0.5;" width="146" x="478" y="48"/><rect fill="#F1F1F1" height="10" style="stroke:#181818;stroke-width:0.5;" width="15" x="604" y="53"/><rect fill="#F1F1F1" height="2" style="stroke:#181818;stroke-width:0.5;" width="4" x="602" y="55"/><rect fill="#F1F1F1" height="2" style="stroke:#181818;stroke-width:0.5;" width="4" x="602" y="59"/><text fill="#000000" font-family="sans-serif" font-size="14" lengthAdjust="spacing" textLength="106" x="493" y="83.1074">Subscriptions:S1</text></g><!--entity s2--><g id="elem_s2"><rect fill="#F1F1F1" height="48.6211" rx="3.5" ry="3.5" style="stroke:#181818;stroke-width:0.5;" width="146" x="297" y="48"/><rect fill="#F1F1F1" height="10" style="stroke:#181818;stroke-width:0.5;" width="15" x="423" y="53"/><rect fill="#F1F1F1" height="2" style="stroke:#181818;stroke-width:0.5;" width="4" x="421" y="55"/><rect fill="#F1F1F1" height="2" style="stroke:#181818;stroke-width:0.5;" width="4" x="421" y="59"/><text fill="#000000" font-family="sans-serif" font-size="14" lengthAdjust="spacing" textLength="106" x="312" y="83.1074">Subscriptions:S2</text></g><!--entity u1--><g id="elem_u1"><rect fill="#F1F1F1" height="48.6211" rx="3.5" ry="3.5" style="stroke:#181818;stroke-width:0.5;" width="97" x="164.5" y="48"/><rect fill="#F1F1F1" height="10" style="stroke:#181818;stroke-width:0.5;" width="15" x="241.5" y="53"/><rect fill="#F1F1F1" height="2" style="stroke:#181818;stroke-width:0.5;" width="4" x="239.5" y="55"/><rect fill="#F1F1F1" height="2" style="stroke:#181818;stroke-width:0.5;" width="4" x="239.5" y="59"/><text fill="#000000" font-family="sans-serif" font-size="14" lengthAdjust="spacing" textLength="57" x="179.5" y="83.1074">Users:U1</text></g><!--entity u2--><g id="elem_u2"><rect fill="#F1F1F1" height="48.6211" rx="3.5" ry="3.5" style="stroke:#181818;stroke-width:0.5;" width="97" x="32.5" y="48"/><rect fill="#F1F1F1" height="10" style="stroke:#181818;stroke-width:0.5;" width="15" x="109.5" y="53"/><rect fill="#F1F1F1" height="2" style="stroke:#181818;stroke-width:0.5;" width="4" x="107.5" y="55"/><rect fill="#F1F1F1" height="2" style="stroke:#181818;stroke-width:0.5;" width="4" x="107.5" y="59"/><text fill="#000000" font-family="sans-serif" font-size="14" lengthAdjust="spacing" textLength="57" x="47.5" y="83.1074">Users:U2</text></g><!--entity dbp--><g id="elem_dbp"><path d="M722.5,228 C722.5,218 750,218 750,218 C750,218 777.5,218 777.5,228 L777.5,255.6211 C777.5,265.6211 750,265.6211 750,265.6211 C750,265.6211 722.5,265.6211 722.5,255.6211 L722.5,228 " fill="#98DDDE" style="stroke:#454645;stroke-width:0.5;"/><path d="M722.5,228 C722.5,238 750,238 750,238 C750,238 777.5,238 777.5,228 " fill="none" style="stroke:#454645;stroke-width:0.5;"/><text fill="#454645" font-family="sans-serif" font-size="14" lengthAdjust="spacing" textLength="35" x="732.5" y="257.1074">Plans</text></g><!--entity dbp2--><g id="elem_dbp2"><path d="M624.5,228 C624.5,218 656,218 656,218 C656,218 687.5,218 687.5,228 L687.5,255.6211 C687.5,265.6211 656,265.6211 656,265.6211 C656,265.6211 624.5,265.6211 624.5,255.6211 L624.5,228 " fill="#98DDDE" style="stroke:#454645;stroke-width:0.5;"/><path d="M624.5,228 C624.5,238 656,238 656,238 C656,238 687.5,238 687.5,228 " fill="none" style="stroke:#454645;stroke-width:0.5;"/><text fill="#454645" font-family="sans-serif" font-size="14" lengthAdjust="spacing" textLength="43" x="634.5" y="257.1074">Plans2</text></g><!--entity dbs--><g id="elem_dbs"><path d="M484.5,228 C484.5,218 537,218 537,218 C537,218 589.5,218 589.5,228 L589.5,255.6211 C589.5,265.6211 537,265.6211 537,265.6211 C537,265.6211 484.5,265.6211 484.5,255.6211 L484.5,228 " fill="#98DDDE" style="stroke:#454645;stroke-width:0.5;"/><path d="M484.5,228 C484.5,238 537,238 537,238 C537,238 589.5,238 589.5,228 " fill="none" style="stroke:#454645;stroke-width:0.5;"/><text fill="#454645" font-family="sans-serif" font-size="14" lengthAdjust="spacing" textLength="85" x="494.5" y="257.1074">Subscriptions</text></g><!--entity dbs2--><g id="elem_dbs2"><path d="M336.5,228 C336.5,218 393,218 393,218 C393,218 449.5,218 449.5,228 L449.5,255.6211 C449.5,265.6211 393,265.6211 393,265.6211 C393,265.6211 336.5,265.6211 336.5,255.6211 L336.5,228 " fill="#98DDDE" style="stroke:#454645;stroke-width:0.5;"/><path d="M336.5,228 C336.5,238 393,238 393,238 C393,238 449.5,238 449.5,228 " fill="none" style="stroke:#454645;stroke-width:0.5;"/><text fill="#454645" font-family="sans-serif" font-size="14" lengthAdjust="spacing" textLength="93" x="346.5" y="257.1074">Subscriptions2</text></g><!--entity dbu--><g id="elem_dbu"><path d="M245,228 C245,218 273,218 273,218 C273,218 301,218 301,228 L301,255.6211 C301,265.6211 273,265.6211 273,265.6211 C273,265.6211 245,265.6211 245,255.6211 L245,228 " fill="#98DDDE" style="stroke:#454645;stroke-width:0.5;"/><path d="M245,228 C245,238 273,238 273,238 C273,238 301,238 301,228 " fill="none" style="stroke:#454645;stroke-width:0.5;"/><text fill="#454645" font-family="sans-serif" font-size="14" lengthAdjust="spacing" textLength="36" x="255" y="257.1074">Users</text></g><!--entity dbu2--><g id="elem_dbu2"><path d="M146,228 C146,218 178,218 178,218 C178,218 210,218 210,228 L210,255.6211 C210,265.6211 178,265.6211 178,265.6211 C178,265.6211 146,265.6211 146,255.6211 L146,228 " fill="#98DDDE" style="stroke:#454645;stroke-width:0.5;"/><path d="M146,228 C146,238 178,238 178,238 C178,238 210,238 210,228 " fill="none" style="stroke:#454645;stroke-width:0.5;"/><text fill="#454645" font-family="sans-serif" font-size="14" lengthAdjust="spacing" textLength="44" x="156" y="257.1074">Users2</text></g><!--link p1 to dbp--><g id="link_p1_dbp"><path d="M825.58,97.14 C808.76,129.16 778.93,185.94 762.22,217.75 " fill="none" id="p1-dbp" style="stroke:#454645;stroke-width:1.0;"/></g><!--link p2 to dbp2--><g id="link_p2_dbp2"><path d="M699.8,97.14 C690.05,129.16 672.77,185.94 663.08,217.75 " fill="none" id="p2-dbp2" style="stroke:#454645;stroke-width:1.0;"/></g><!--link s1 to dbs--><g id="link_s1_dbs"><path d="M549.02,97.14 C546.35,129.16 541.6,185.94 538.94,217.75 " fill="none" id="s1-dbs" style="stroke:#454645;stroke-width:1.0;"/></g><!--link s2 to dbs2--><g id="link_s2_dbs2"><path d="M373.25,97.14 C377.64,129.16 385.44,185.94 389.81,217.75 " fill="none" id="s2-dbs2" style="stroke:#454645;stroke-width:1.0;"/></g><!--link u1 to dbu--><g id="link_u1_dbu"><path d="M221.47,97.14 C232.94,129.16 253.28,185.94 264.67,217.75 " fill="none" id="u1-dbu" style="stroke:#454645;stroke-width:1.0;"/></g><!--link u2 to dbu2--><g id="link_u2_dbu2"><path d="M94.69,97.14 C113.23,129.16 146.11,185.94 164.53,217.75 " fill="none" id="u2-dbu2" style="stroke:#454645;stroke-width:1.0;"/></g><!--SRC=[XO-xRWCX44Nx-GhY9jLc1UMsQL9Qilm1x8AyIBp4G65P_lTCO2diUEMfqDp3WVkvvXnn6iTefS_5sQybk57fQCFLQPy7PUGbIGVmaLVjDClX2k23qknmr0c3bvPz1nTBrkd0938qg0ox0QCXLmoUD0IJ7wSZhqpaEx5eiNYEJsN69PcOJI3ir2p8ts3DXlziPwIVJ-TcANmdRhUBW9edlMJfBvPw_xHa5Moh-JTAPZbBr5kLIgWvxkMY0-85yL1Z0_4TrutuobWhRK3PoxkXDCCTxa0JEHk6eNQ9eXy5O5yZO5_JqwMl2vI-9jyl]--></g></svg>