<?xml version="1.0" encoding="us-ascii" standalone="no"?><svg xmlns="http://www.w3.org/2000/svg" xmlns:xlink="http://www.w3.org/1999/xlink" contentStyleType="text/css" height="994px" preserveAspectRatio="none" style="width:599px;height:994px;background:#FFFFFF;" version="1.1" viewBox="0 0 599 994" width="599px" zoomAndPan="magnify"><defs/><g><text fill="#000000" font-family="sans-serif" font-size="14" font-weight="bold" lengthAdjust="spacing" textLength="127" x="229" y="25.1074">Use Case Diagram</text><!--cluster Plans--><g id="cluster_Plans"><path d="M9,294.6348 L48,294.6348 A3.75,3.75 0 0 1 50.5,297.1348 L57.5,319.2559 L264,319.2559 A2.5,2.5 0 0 1 266.5,321.7559 L266.5,710.1348 A2.5,2.5 0 0 1 264,712.6348 L9,712.6348 A2.5,2.5 0 0 1 6.5,710.1348 L6.5,297.1348 A2.5,2.5 0 0 1 9,294.6348 " fill="none" style="stroke:#000000;stroke-width:1.5;"/><line style="stroke:#000000;stroke-width:1.5;" x1="6.5" x2="57.5" y1="319.2559" y2="319.2559"/><text fill="#000000" font-family="sans-serif" font-size="14" font-weight="bold" lengthAdjust="spacing" textLength="38" x="10.5" y="311.7422">Plans</text></g><!--cluster Subscriptions--><g id="cluster_Subscriptions"><path d="M297.5,45.6348 L395.5,45.6348 A3.75,3.75 0 0 1 398,48.1348 L405,70.2559 L589.5,70.2559 A2.5,2.5 0 0 1 592,72.7559 L592,405.1348 A2.5,2.5 0 0 1 589.5,407.6348 L297.5,407.6348 A2.5,2.5 0 0 1 295,405.1348 L295,48.1348 A2.5,2.5 0 0 1 297.5,45.6348 " fill="none" style="stroke:#000000;stroke-width:1.5;"/><line style="stroke:#000000;stroke-width:1.5;" x1="295" x2="405" y1="70.2559" y2="70.2559"/><text fill="#000000" font-family="sans-serif" font-size="14" font-weight="bold" lengthAdjust="spacing" textLength="97" x="299" y="62.7422">Subscriptions</text></g><!--cluster Users--><g id="cluster_Users"><path d="M8.5,736.6348 L50.5,736.6348 A3.75,3.75 0 0 1 53,739.1348 L60,761.2559 L264.5,761.2559 A2.5,2.5 0 0 1 267,763.7559 L267,985.1348 A2.5,2.5 0 0 1 264.5,987.6348 L8.5,987.6348 A2.5,2.5 0 0 1 6,985.1348 L6,739.1348 A2.5,2.5 0 0 1 8.5,736.6348 " fill="none" style="stroke:#000000;stroke-width:1.5;"/><line style="stroke:#000000;stroke-width:1.5;" x1="6" x2="60" y1="761.2559" y2="761.2559"/><text fill="#000000" font-family="sans-serif" font-size="14" font-weight="bold" lengthAdjust="spacing" textLength="41" x="10" y="753.7422">Users</text></g><g id="elem_UC8"><ellipse cx="136.2713" cy="433.489" fill="#F1F1F1" rx="104.7713" ry="23.3543" style="stroke:#181818;stroke-width:0.5;"/><text fill="#000000" font-family="sans-serif" font-size="14" lengthAdjust="spacing" textLength="169" x="51.7713" y="437.2859">UC9 - Change Plan Details</text></g><g id="elem_UC9"><ellipse cx="136.2971" cy="514.5942" fill="#F1F1F1" rx="97.7971" ry="21.9594" style="stroke:#181818;stroke-width:0.5;"/><text fill="#000000" font-family="sans-serif" font-size="14" lengthAdjust="spacing" textLength="153" x="58.019" y="519.0213">UC10 - Create New Plan</text></g><g id="elem_UC10"><ellipse cx="136.2711" cy="353.589" fill="#F1F1F1" rx="95.2711" ry="21.4542" style="stroke:#181818;stroke-width:0.5;"/><text fill="#000000" font-family="sans-serif" font-size="14" lengthAdjust="spacing" textLength="147" x="60.1672" y="358.2752">UC11 - Deactivate Plan</text></g><g id="elem_UC11"><ellipse cx="136.5589" cy="591.5465" fill="#F1F1F1" rx="87.5589" ry="19.9118" style="stroke:#181818;stroke-width:0.5;"/><text fill="#000000" font-family="sans-serif" font-size="14" lengthAdjust="spacing" textLength="128" x="69.5589" y="596.3503">UC12 - List All Plans</text></g><g id="elem_UC12"><ellipse cx="136.7122" cy="671.8772" fill="#F1F1F1" rx="114.2122" ry="25.2424" style="stroke:#181818;stroke-width:0.5;"/><text fill="#000000" font-family="sans-serif" font-size="14" lengthAdjust="spacing" textLength="190" x="41.7122" y="675.6741">UC2 - Bootstrap System Plans</text></g><g id="elem_UC4"><ellipse cx="443.4402" cy="279.7228" fill="#F1F1F1" rx="103.4402" ry="23.088" style="stroke:#181818;stroke-width:0.5;"/><text fill="#000000" font-family="sans-serif" font-size="14" lengthAdjust="spacing" textLength="166" x="360.3058" y="283.5711">UC5 - Cancel Subscription</text></g><g id="elem_UC5"><ellipse cx="443.6059" cy="364.656" fill="#F1F1F1" rx="120.6059" ry="26.5212" style="stroke:#181818;stroke-width:0.5;"/><text fill="#000000" font-family="sans-serif" font-size="14" lengthAdjust="spacing" textLength="204" x="341.6059" y="368.4528">UC6 - Change Subscription Plan</text></g><g id="elem_UC6"><ellipse cx="443.6463" cy="111.564" fill="#F1F1F1" rx="132.6463" ry="28.9293" style="stroke:#181818;stroke-width:0.5;"/><text fill="#000000" font-family="sans-serif" font-size="14" lengthAdjust="spacing" textLength="230" x="328.6463" y="115.3609">UC7 - View Subscription Plan Details</text></g><g id="elem_UC7"><ellipse cx="443.4985" cy="198.6345" fill="#F1F1F1" rx="102.9985" ry="22.9997" style="stroke:#181818;stroke-width:0.5;"/><text fill="#000000" font-family="sans-serif" font-size="14" lengthAdjust="spacing" textLength="165" x="360.7441" y="202.5281">UC8 - Renew Subscription</text></g><g id="elem_UC1"><ellipse cx="136.6884" cy="881.6724" fill="#F1F1F1" rx="95.6884" ry="21.5377" style="stroke:#181818;stroke-width:0.5;"/><text fill="#000000" font-family="sans-serif" font-size="14" lengthAdjust="spacing" textLength="148" x="60.2253" y="886.3159">UC3 - Register Account</text></g><g id="elem_UC2"><ellipse cx="136.6665" cy="799.4681" fill="#F1F1F1" rx="114.6665" ry="25.3333" style="stroke:#181818;stroke-width:0.5;"/><text fill="#000000" font-family="sans-serif" font-size="14" lengthAdjust="spacing" textLength="191" x="41.1665" y="803.2649">UC1 - Bootstrap System Users</text></g><g id="elem_UC3"><ellipse cx="136.4594" cy="954.6103" fill="#F1F1F1" rx="65.9594" ry="16.4755" style="stroke:#181818;stroke-width:0.5;"/><text fill="#000000" font-family="sans-serif" font-size="14" lengthAdjust="spacing" textLength="75" x="95.9594" y="959.414">UC4 - Login</text></g><!--entity Admin--><g id="elem_Admin"><ellipse cx="443.5" cy="688.6348" fill="#F1F1F1" rx="8" ry="8" style="stroke:#181818;stroke-width:0.5;"/><path d="M443.5,696.6348 L443.5,723.6348 M430.5,704.6348 L456.5,704.6348 M443.5,723.6348 L430.5,738.6348 M443.5,723.6348 L456.5,738.6348 " fill="none" style="stroke:#181818;stroke-width:0.5;"/><text fill="#000000" font-family="sans-serif" font-size="14" lengthAdjust="spacing" textLength="39" x="424" y="755.2422">Admin</text></g><!--entity Director--><g id="elem_Director"><ellipse cx="443.5" cy="479.6348" fill="#F1F1F1" rx="8" ry="8" style="stroke:#181818;stroke-width:0.5;"/><path d="M443.5,487.6348 L443.5,514.6348 M430.5,495.6348 L456.5,495.6348 M443.5,514.6348 L430.5,529.6348 M443.5,514.6348 L456.5,529.6348 " fill="none" style="stroke:#181818;stroke-width:0.5;"/><text fill="#000000" font-family="sans-serif" font-size="14" lengthAdjust="spacing" textLength="116" x="385.5" y="546.2422">Marketing Director</text></g><!--entity User--><g id="elem_User"><ellipse cx="443.5" cy="850.6348" fill="#F1F1F1" rx="8" ry="8" style="stroke:#181818;stroke-width:0.5;"/><path d="M443.5,858.6348 L443.5,885.6348 M430.5,866.6348 L456.5,866.6348 M443.5,885.6348 L430.5,900.6348 M443.5,885.6348 L456.5,900.6348 " fill="none" style="stroke:#181818;stroke-width:0.5;"/><text fill="#000000" font-family="sans-serif" font-size="14" lengthAdjust="spacing" textLength="29" x="429" y="917.2422">User</text></g><!--entity Subscriber--><g id="elem_Subscriber"><ellipse cx="136.5" cy="207.6348" fill="#F1F1F1" rx="8" ry="8" style="stroke:#181818;stroke-width:0.5;"/><path d="M136.5,215.6348 L136.5,242.6348 M123.5,223.6348 L149.5,223.6348 M136.5,242.6348 L123.5,257.6348 M136.5,242.6348 L149.5,257.6348 " fill="none" style="stroke:#181818;stroke-width:0.5;"/><text fill="#000000" font-family="sans-serif" font-size="14" lengthAdjust="spacing" textLength="68" x="102.5" y="274.2422">Subscriber</text></g><!--link UC2 to Admin--><g id="link_UC2_Admin"><path d="M211.33,780.2648 C281.68,761.8148 376.9664,736.8275 418.1664,726.0175 " fill="none" id="UC2-to-Admin" style="stroke:#181818;stroke-width:1.0;"/><polygon fill="#181818" points="423.97,724.4948,414.2495,722.9098,419.1337,725.7637,416.2798,730.6479,423.97,724.4948" style="stroke:#181818;stroke-width:1.0;"/></g><!--link UC12 to Admin--><g id="link_UC12_Admin"><path d="M229.84,686.1648 C298.39,696.9548 380.3328,709.8527 418.0428,715.7827 " fill="none" id="UC12-to-Admin" style="stroke:#181818;stroke-width:1.0;"/><polygon fill="#181818" points="423.97,716.7148,415.7006,711.3652,419.0307,715.938,414.4579,719.2681,423.97,716.7148" style="stroke:#181818;stroke-width:1.0;"/></g><!--reverse link UC8 to Director--><g id="link_UC8_Director"><path d="M212.9074,452.6737 C266.8874,466.3037 334.95,483.4848 385.46,496.2348 " fill="none" id="UC8-backto-Director" style="stroke:#181818;stroke-width:1.0;"/><polygon fill="#181818" points="207.09,451.2048,214.8369,457.2864,211.9378,452.4289,216.7954,449.5298,207.09,451.2048" style="stroke:#181818;stroke-width:1.0;"/></g><!--reverse link UC9 to Director--><g id="link_UC9_Director"><path d="M240.4195,513.2863 C290.1395,512.6363 342.98,511.9448 385.38,511.3848 " fill="none" id="UC9-backto-Director" style="stroke:#181818;stroke-width:1.0;"/><polygon fill="#181818" points="234.42,513.3648,243.4715,517.2468,239.4196,513.2994,243.3669,509.2475,234.42,513.3648" style="stroke:#181818;stroke-width:1.0;"/></g><!--reverse link UC10 to Director--><g id="link_UC10_Director"><path d="M219.7125,367.9756 C240.6625,373.7756 256.81,380.5548 275,392.6348 C282.11,397.3548 280.7,401.8748 287,407.6348 C316.88,434.9448 354.65,460.1448 385.49,478.7748 " fill="none" id="UC10-backto-Director" style="stroke:#181818;stroke-width:1.0;"/><polygon fill="#181818" points="213.93,366.3748,221.5365,372.6311,218.7487,367.7088,223.671,364.9211,213.93,366.3748" style="stroke:#181818;stroke-width:1.0;"/></g><!--reverse link UC11 to Director--><g id="link_UC11_Director"><path d="M199.949,575.0449 C254.479,560.5649 330.69,540.3248 385.37,525.8048 " fill="none" id="UC11-backto-Director" style="stroke:#181818;stroke-width:1.0;"/><polygon fill="#181818" points="194.15,576.5848,203.8751,578.141,198.9825,575.3015,201.822,570.4089,194.15,576.5848" style="stroke:#181818;stroke-width:1.0;"/></g><!--reverse link UC1 to User--><g id="link_UC1_User"><path d="M238.33,881.6348 C309.68,881.6348 394.78,881.6348 428.84,881.6348 " fill="none" id="UC1-backto-User" style="stroke:#181818;stroke-width:1.0;"/><polygon fill="#181818" points="232.33,881.6348,241.33,885.6348,237.33,881.6348,241.33,877.6348,232.33,881.6348" style="stroke:#181818;stroke-width:1.0;"/></g><!--reverse link UC3 to User--><g id="link_UC3_User"><path d="M190.6552,941.9081 C261.7652,924.8881 386.54,895.0248 428.87,884.8948 " fill="none" id="UC3-backto-User" style="stroke:#181818;stroke-width:1.0;"/><polygon fill="#181818" points="184.82,943.3048,194.5039,945.0999,189.6827,942.1409,192.6417,937.3197,184.82,943.3048" style="stroke:#181818;stroke-width:1.0;"/></g><!--reverse link UC11 to User--><g id="link_UC11_User"><path d="M226.6686,598.8462 C247.2086,604.3062 261.4,612.2948 275,628.6348 C296.12,653.9948 270.35,748.1448 287,776.6348 C320.04,833.1648 397.06,865.6548 428.63,877.0048 " fill="none" id="UC11-backto-User" style="stroke:#181818;stroke-width:1.0;"/><polygon fill="#181818" points="220.87,597.3048,228.5403,603.4826,225.7022,598.5893,230.5955,595.7511,220.87,597.3048" style="stroke:#181818;stroke-width:1.0;"/></g><!--link Subscriber to UC4--><g id="link_Subscriber_UC4"><path d="M170.72,243.1048 C214.49,248.9848 287.1735,258.7556 348.6335,267.0156 " fill="none" id="Subscriber-to-UC4" style="stroke:#181818;stroke-width:1.0;"/><polygon fill="#181818" points="354.58,267.8148,346.193,262.6516,349.6246,267.1488,345.1274,270.5803,354.58,267.8148" style="stroke:#181818;stroke-width:1.0;"/></g><!--link Subscriber to UC5--><g id="link_Subscriber_UC5"><path d="M170.63,259.2748 C200.27,277.0848 245.35,302.5548 287,319.6348 C310.92,329.4448 331.9571,336.3798 356.4971,343.3298 " fill="none" id="Subscriber-to-UC5" style="stroke:#181818;stroke-width:1.0;"/><polygon fill="#181818" points="362.27,344.9648,354.7006,338.6637,357.4592,343.6023,352.5206,346.361,362.27,344.9648" style="stroke:#181818;stroke-width:1.0;"/></g><!--link Subscriber to UC6--><g id="link_Subscriber_UC6"><path d="M170.65,218.0548 C200.31,200.2848 245.4,174.8348 287,157.6348 C309.11,148.4948 327.937,142.0486 350.897,135.2486 " fill="none" id="Subscriber-to-UC6" style="stroke:#181818;stroke-width:1.0;"/><polygon fill="#181818" points="356.65,133.5448,346.8846,132.2652,351.8558,134.9646,349.1564,139.9359,356.65,133.5448" style="stroke:#181818;stroke-width:1.0;"/></g><!--link Subscriber to UC7--><g id="link_Subscriber_UC7"><path d="M170.72,234.2748 C214.41,228.5448 286.891,219.0456 348.301,210.9856 " fill="none" id="Subscriber-to-UC7" style="stroke:#181818;stroke-width:1.0;"/><polygon fill="#181818" points="354.25,210.2048,344.806,207.41,349.2925,210.8554,345.8471,215.3419,354.25,210.2048" style="stroke:#181818;stroke-width:1.0;"/></g><!--SRC=[RPBBRi8m44Nt_eeHcwvI26zGLOcIPLjLHNHlWXiiyf8zQLLL_VVEc0GIGnPHV7tkP5vt1yJIBllzCfKvLbbw7nTPlx8gY2MzzbecHcP2eCPKmTOgM9CEKQEdwXC12p0wEI3ijL4nwY8NOhdQPpfVWhJGSvyziOpSTM5EweiqHuKwJw3H2Q4_rDVyHSAcsjdOw5qZNyuz8KeP7sMYu8sIj_0hW1BdlCczNa00wuFCwsk854gTsXv7sQxd7JOSC6oKH0MlwjiPQd3H1KC28oMfo2-6Ms0uw9938f-rHLYbwId11Wmx87DFHO4MZInXysDHPLr-AFukfTRrbznbLp8zhMWJBaJciKexP1rgxEFJIvFQUBkkYU-PaUT3KvUk75wFfxvpJivtbNlMcfwrg-JXtwXkv08ar5LbO1N7HPLZqoMV3M_rrSMj7KFVCUQ95ObkCXfnHi9DA7W4jyJYDDZpKN1H3q5mNc71Y-S9j5s-4dOLbfp2-GckitK8MrVYiluk2nxfbJIvbgRNqkmV]--></g></svg>